<svg width="1440" height="1024" viewBox="0 0 1440 1024" fill="none" xmlns="http://www.w3.org/2000/svg">
<rect width="1440" height="1024" fill="#E5E5E5"/>
<rect width="1440" height="1024" fill="white"/>
<path d="M603.334 464.198L661.787 306.577L826.495 272.929L932.666 396.802L874.213 554.423L709.505 588.071L603.334 464.198Z" fill="white" stroke="black" stroke-width="4"/>
<g filter="url(#filter0_d_0_1)">
<path d="M843.984 460.555H846.984V457.555H843.984V460.555ZM843.984 476.375V479.375H846.984V476.375H843.984ZM800.215 476.375H797.215V479.375H800.215V476.375ZM800.215 460.555V457.555H797.215V460.555H800.215ZM807.07 426.688H810.07V423.688H807.07V426.688ZM807.07 512V515H810.07V512H807.07ZM786.504 512H783.504V515H786.504V512ZM786.504 426.688V423.688H783.504V426.688H786.504ZM857.812 426.688H860.812V423.688H857.812V426.688ZM857.812 512V515H860.812V512H857.812ZM837.305 512H834.305V515H837.305V512ZM837.305 426.688V423.688H834.305V426.688H837.305ZM840.984 460.555V476.375H846.984V460.555H840.984ZM843.984 473.375H800.215V479.375H843.984V473.375ZM803.215 476.375V460.555H797.215V476.375H803.215ZM800.215 463.555H843.984V457.555H800.215V463.555ZM804.07 426.688V512H810.07V426.688H804.07ZM807.07 509H786.504V515H807.07V509ZM789.504 512V426.688H783.504V512H789.504ZM786.504 429.688H807.07V423.688H786.504V429.688ZM854.812 426.688V512H860.812V426.688H854.812ZM857.812 509H837.305V515H857.812V509ZM840.305 512V426.688H834.305V512H840.305ZM837.305 429.688H857.812V423.688H837.305V429.688Z" fill="black"/>
</g>
<path d="M626.632 490.291L685.084 332.669L849.793 299.021L955.963 422.894L897.511 580.515L732.803 614.164L626.632 490.291Z" stroke="black" stroke-width="4"/>
<g filter="url(#filter1_d_0_1)">
<path d="M765.871 429.18H768.871V426.18H765.871V429.18ZM765.871 445V448H768.871V445H765.871ZM722.746 445H719.746V448H722.746V445ZM722.746 429.18V426.18H719.746V429.18H722.746ZM730.07 359.688H733.07V356.688H730.07V359.688ZM730.07 445V448H733.07V445H730.07ZM709.504 445H706.504V448H709.504V445ZM709.504 359.688V356.688H706.504V359.688H709.504ZM762.871 429.18V445H768.871V429.18H762.871ZM765.871 442H722.746V448H765.871V442ZM725.746 445V429.18H719.746V445H725.746ZM722.746 432.18H765.871V426.18H722.746V432.18ZM727.07 359.688V445H733.07V359.688H727.07ZM730.07 442H709.504V448H730.07V442ZM712.504 445V359.688H706.504V445H712.504ZM709.504 362.688H730.07V356.688H709.504V362.688Z" fill="black"/>
</g>
<path d="M578.1 728.2C577.433 728.867 576.6 729.267 575.6 729.4C571.533 729.933 565.333 730.2 557 730.2L545.3 730C544.3 729.933 543.8 729.467 543.8 728.6L544 727.6C544.933 725.333 546.267 722.233 548 718.3C549.8 714.367 553.533 707.133 559.2 696.6C564.867 686 570.667 676.333 576.6 667.6C582.667 658.8 586.633 653.667 588.5 652.2C589.367 651.467 590.167 651.1 590.9 651.1C591.433 651.1 591.7 651.4 591.7 652C591.7 653.067 590.8 655.433 589 659.1C587.2 662.767 585.633 665.733 584.3 668C568.767 696 559.1 715 555.3 725C555.233 725.2 555.2 725.4 555.2 725.6C555.2 726.733 556.367 727.3 558.7 727.3C563.233 727.3 567.433 725.833 571.3 722.9C577.033 718.3 582.167 713.067 586.7 707.2C587.233 706.667 587.767 706.4 588.3 706.4C588.833 706.4 589.1 706.733 589.1 707.4C589.1 708.067 588.733 709.233 588 710.9C583.667 720.3 580.367 726.067 578.1 728.2ZM632.204 692.8C632.804 692.933 633.104 693.133 633.104 693.4C633.104 693.8 632.837 694.267 632.304 694.8C631.571 695.533 630.471 696.5 629.004 697.7C627.604 698.9 626.771 699.633 626.504 699.9L625.104 701.8C623.704 705.733 621.537 709.833 618.604 714.1C615.737 718.3 612.204 722 608.004 725.2C603.871 728.4 599.904 730 596.104 730C591.371 730 589.004 727.1 589.004 721.3C589.004 716.167 590.671 710.633 594.004 704.7C597.337 698.7 601.637 693.6 606.904 689.4C612.237 685.133 617.471 683 622.604 683C626.337 683 628.204 684.467 628.204 687.4C628.204 689 627.404 691.167 625.804 693.9C625.737 693.967 625.704 694.067 625.704 694.2C625.704 694.333 625.771 694.4 625.904 694.4C628.371 693.4 630.471 692.867 632.204 692.8ZM622.704 695.2C623.237 692.867 623.504 691.067 623.504 689.8C623.504 687 622.571 685.6 620.704 685.6C618.104 685.6 614.871 688 611.004 692.8C607.137 697.6 603.804 703 601.004 709C598.271 715 596.904 719.733 596.904 723.2C596.904 725.733 597.804 727 599.604 727C602.404 727 605.737 724.2 609.604 718.6C613.537 713 615.904 707.367 616.704 701.7C616.637 701.567 616.604 701.367 616.604 701.1C616.604 699.167 618.337 697.433 621.804 695.9C622.337 695.7 622.637 695.467 622.704 695.2ZM645.87 711.3L648.97 706C648.97 705.8 648.903 705.7 648.77 705.7C648.636 705.7 648.47 705.8 648.27 706C645.803 708.867 643.236 711.667 640.57 714.4C637.903 717.067 635.87 719.033 634.47 720.3L632.27 722.2C627.07 727.133 623.47 729.6 621.47 729.6C620.536 729.6 620.07 729 620.07 727.8C620.07 726.467 620.636 724.433 621.77 721.7C622.836 718.967 623.936 716.533 625.07 714.4L626.67 711.3C632.27 700.833 636.403 693.833 639.07 690.3C640.403 688.567 642.036 687.133 643.97 686C645.903 684.8 647.403 684.2 648.47 684.2C649.136 684.2 649.47 684.433 649.47 684.9C649.47 685.167 649.336 685.533 649.07 686C648.936 686.267 647.57 688.5 644.97 692.7C642.37 696.833 640.27 700.4 638.67 703.4C634.27 711.467 632.07 716.1 632.07 717.3C632.07 717.767 632.27 718 632.67 718C633.27 718 634.303 717.4 635.77 716.2C640.103 712.467 644.87 707.433 650.07 701.1C652.936 698.033 655.936 694.033 659.07 689.1C661.203 685.833 664.036 684.2 667.57 684.2C668.17 684.2 668.47 684.467 668.47 685L667.67 686.9C666.736 688.567 664.636 692.233 661.37 697.9C658.17 703.5 656.336 706.7 655.87 707.5C653.136 712.3 651.77 715.467 651.77 717C651.77 717.6 651.97 717.9 652.37 717.9C653.036 717.9 655.17 716.233 658.77 712.9C661.57 710.1 665.27 706.067 669.87 700.8C670.07 700.6 670.236 700.5 670.37 700.5C670.503 700.5 670.57 700.633 670.57 700.9C670.57 702.167 670.07 703.4 669.07 704.6C664.136 710.067 659.77 714.633 655.97 718.3C653.37 720.767 650.436 723.233 647.17 725.7C643.97 728.167 641.636 729.4 640.17 729.4C639.17 729.4 638.67 728.7 638.67 727.3C638.67 726.5 639.27 724.767 640.47 722.1C641.67 719.433 642.87 716.967 644.07 714.7L645.87 711.3ZM674.179 718.3C666.379 725.633 661.379 729.3 659.179 729.3C658.046 729.3 657.479 728.533 657.479 727C657.479 725.467 658.079 723.233 659.279 720.3C660.479 717.367 661.679 714.8 662.879 712.6L664.679 709.4C669.746 700.533 673.579 694.167 676.179 690.3C677.312 688.633 678.746 687.233 680.479 686.1C682.279 684.9 683.946 684.3 685.479 684.3C686.012 684.3 686.279 684.533 686.279 685C686.279 685.333 686.046 685.967 685.579 686.9C684.779 688.367 682.812 691.867 679.679 697.4C676.546 702.933 674.679 706.267 674.079 707.4C671.346 712.2 669.979 715.4 669.979 717C669.979 717.6 670.179 717.9 670.579 717.9C671.246 717.9 673.379 716.233 676.979 712.9C679.779 710.1 683.479 706.067 688.079 700.8C688.279 700.6 688.446 700.5 688.579 700.5C688.712 700.5 688.779 700.633 688.779 700.9C688.779 702.167 688.279 703.4 687.279 704.6C682.346 710.067 677.979 714.633 674.179 718.3ZM687.479 678.6C685.812 678.6 684.979 677.6 684.979 675.6C684.979 673.733 685.679 671.867 687.079 670C688.479 668.067 690.012 667.1 691.679 667.1C693.679 667.1 694.679 668.233 694.679 670.5C694.679 672.367 693.912 674.2 692.379 676C690.846 677.733 689.212 678.6 687.479 678.6ZM702.143 716.6C700.943 719.867 699.043 722.633 696.443 724.9C693.843 727.1 691.41 728.6 689.143 729.4C686.943 730.2 684.943 730.6 683.143 730.6C678.276 730.6 675.843 728.7 675.843 724.9C675.843 721.033 677.976 717.533 682.243 714.4C684.243 712.933 686.41 711.967 688.743 711.5C689.076 711.5 689.243 711.633 689.243 711.9C689.243 712.033 689.176 712.167 689.043 712.3C687.376 713.567 685.776 715.533 684.243 718.2C682.776 720.867 682.043 723.2 682.043 725.2C682.043 727.2 682.876 728.2 684.543 728.2C685.876 728.2 687.176 727.667 688.443 726.6C689.776 725.467 690.776 724.333 691.443 723.2L692.443 721.6C693.776 719.467 694.876 716.067 695.743 711.4C696.676 706.733 697.276 702.6 697.543 699L697.843 693.6C697.843 693.067 697.743 692.8 697.543 692.8L697.143 693L687.243 704.6C686.51 705.467 686.01 705.9 685.743 705.9C685.41 705.9 685.243 705.667 685.243 705.2C685.243 704.333 685.476 703.667 685.943 703.2L686.843 702.1C694.443 693.567 698.776 688.4 699.843 686.6C700.843 685.067 702.31 683.733 704.243 682.6C706.11 681.533 708.31 681 710.843 681C711.51 681 711.843 681.267 711.843 681.8C711.843 682.133 711.576 682.433 711.043 682.7C710.843 682.767 710.576 682.933 710.243 683.2C709.976 683.4 709.443 683.933 708.643 684.8C707.91 685.667 707.243 686.667 706.643 687.8C706.043 688.933 705.51 690.533 705.043 692.6C704.576 694.6 704.343 696.833 704.343 699.3C704.343 706.967 703.61 712.733 702.143 716.6ZM790.387 653.2C785.587 657.533 779.853 665 773.187 675.6C766.587 686.2 761.353 695.267 757.487 702.8C753.687 710.333 750.653 716.567 748.387 721.5C745.253 728.5 742.887 732 741.287 732C740.22 732 739.687 730.533 739.687 727.6C739.687 725.467 740.12 722.9 740.987 719.9C741.853 716.9 742.753 714.433 743.687 712.5L744.987 709.6C747.253 704.867 748.387 699.833 748.387 694.5C748.387 687.233 746.587 681.067 742.987 676C736.52 689.6 729.453 702.6 721.787 715C721.053 716.2 720.22 717.5 719.287 718.9C718.353 720.3 717.087 722.1 715.487 724.3C713.887 726.433 712.32 728.2 710.787 729.6C709.253 731 707.953 731.7 706.887 731.7C706.287 731.7 705.987 731.333 705.987 730.6L706.087 729.7C706.353 727.167 710.553 718.767 718.687 704.5L737.687 670.9C735.153 669.3 732.32 668.5 729.187 668.5C726.12 668.5 723.687 669.433 721.887 671.3C720.153 673.167 719.287 675.667 719.287 678.8C719.287 680.133 719.453 681.4 719.787 682.6C719.987 683.2 720.087 683.667 720.087 684C720.087 684.6 719.853 684.9 719.387 684.9C718.253 684.9 716.953 683.467 715.487 680.6C714.02 677.733 713.287 675.3 713.287 673.3C713.287 670.5 714.253 668.333 716.187 666.8C718.187 665.2 720.82 664.4 724.087 664.4C729.687 664.4 734.653 665.833 738.987 668.7L748.887 651.2C749.553 650.533 750.087 650.2 750.487 650.2C751.153 650.2 751.487 650.8 751.487 652C751.487 655.533 749.053 662.633 744.187 673.3C749.187 679.233 751.687 687.067 751.687 696.8C751.82 697.467 751.987 697.8 752.187 697.8C752.387 697.8 752.587 697.533 752.787 697C756.787 689.733 760.22 683.2 763.087 677.4C766.953 669.6 771.187 663.267 775.787 658.4C780.453 653.467 785.153 651 789.887 651C790.887 651 791.387 651.2 791.387 651.6C791.387 651.8 791.053 652.333 790.387 653.2ZM786.842 721.7C781.309 726.767 777.509 729.3 775.442 729.3C774.509 729.3 774.042 728.767 774.042 727.7C774.042 726.367 774.609 724.333 775.742 721.6C776.942 718.867 778.142 716.467 779.342 714.4L781.142 711.3C781.409 710.833 781.542 710.533 781.542 710.4C781.542 710.267 781.476 710.2 781.342 710.2C781.076 710.2 780.576 710.567 779.842 711.3C777.842 713.5 775.542 715.867 772.942 718.4C770.409 720.867 768.342 722.8 766.742 724.2L764.442 726.2C761.842 728.2 759.842 729.2 758.442 729.2C756.976 729.2 756.242 728.067 756.242 725.8C756.242 724.667 756.576 722.933 757.242 720.6C757.842 718.267 758.309 716.7 758.642 715.9C760.176 712.167 762.076 708.533 764.342 705C766.676 701.467 769.409 698.1 772.542 694.9C775.676 691.633 779.309 689 783.442 687C787.642 685 791.976 684 796.442 684C800.176 684 802.042 684.567 802.042 685.7C802.042 686.367 801.209 686.7 799.542 686.7C793.409 686.7 787.642 689.333 782.242 694.6C776.909 699.8 772.576 705.8 769.242 712.6C768.309 714.467 767.842 716.033 767.842 717.3C767.842 718.033 768.076 718.4 768.542 718.4C769.342 718.4 770.376 717.833 771.642 716.7C772.442 715.967 773.509 715 774.842 713.8C776.242 712.6 778.476 710.3 781.542 706.9C784.609 703.5 787.042 700.333 788.842 697.4C789.109 696.867 789.509 696.233 790.042 695.5C790.642 694.767 791.742 693.8 793.342 692.6C794.942 691.333 796.542 690.7 798.142 690.7C799.009 690.7 799.442 690.933 799.442 691.4C799.442 691.533 799.342 691.767 799.142 692.1C798.876 692.633 798.109 693.967 796.842 696.1C795.642 698.233 794.509 700.267 793.442 702.2C792.376 704.067 791.242 706.133 790.042 708.4C788.842 710.6 787.876 712.5 787.142 714.1C786.476 715.7 786.142 716.767 786.142 717.3C786.142 717.7 786.309 717.9 786.642 717.9C787.642 717.9 790.076 715.967 793.942 712.1C796.876 709.033 800.309 705.267 804.242 700.8C804.442 700.6 804.609 700.5 804.742 700.5C804.876 700.5 804.942 700.633 804.942 700.9C804.942 702.167 804.442 703.4 803.442 704.6C796.909 711.867 791.376 717.567 786.842 721.7ZM828.254 718.3C820.454 725.633 815.321 729.3 812.854 729.3C811.721 729.3 811.154 728.7 811.154 727.5C811.154 726.767 811.321 725.867 811.654 724.8C811.987 723.667 812.387 722.567 812.854 721.5C813.387 720.367 813.887 719.333 814.354 718.4C814.821 717.467 815.287 716.6 815.754 715.8C816.221 715 816.454 714.567 816.454 714.5C817.454 712.7 818.954 710.2 820.954 707C822.954 703.733 824.554 701.067 825.754 699C826.954 696.867 827.554 695.567 827.554 695.1C827.554 694.767 827.387 694.6 827.054 694.6L825.654 695.1C822.587 697.3 818.921 700.733 814.654 705.4C810.387 710 806.887 714.067 804.154 717.6L800.054 722.8C799.187 724.067 798.421 725.1 797.754 725.9C797.087 726.7 796.121 727.467 794.854 728.2C793.654 729 792.421 729.4 791.154 729.4C790.221 729.4 789.754 729.133 789.754 728.6C789.754 728.067 790.387 726.533 791.654 724C792.921 721.4 794.187 718.933 795.454 716.6L797.354 713.2L807.154 696C808.154 694.333 808.954 693.067 809.554 692.2C810.221 691.267 811.121 690.133 812.254 688.8C813.387 687.4 814.587 686.367 815.854 685.7C817.187 685.033 818.587 684.633 820.054 684.5C820.587 684.5 820.854 684.733 820.854 685.2C820.854 685.6 820.754 685.933 820.554 686.2C819.021 688.6 816.654 692.567 813.454 698.1C810.321 703.633 808.321 707.233 807.454 708.9C807.254 709.3 807.154 709.6 807.154 709.8C807.154 709.933 807.221 710 807.354 710C807.487 710 807.821 709.8 808.354 709.4C809.621 707.933 811.254 706.1 813.254 703.9C815.321 701.7 818.787 698.4 823.654 694C828.521 689.533 832.521 686.533 835.654 685C836.387 684.667 837.087 684.5 837.754 684.5C838.687 684.5 839.154 685.033 839.154 686.1C838.621 689.233 836.054 694.6 831.454 702.2C826.387 710.533 823.854 715.467 823.854 717C823.854 717.533 824.087 717.8 824.554 717.8C824.887 717.8 825.254 717.7 825.654 717.5C826.121 717.233 826.621 716.9 827.154 716.5C827.687 716.033 828.121 715.633 828.454 715.3C828.854 714.967 829.354 714.533 829.954 714C830.554 713.4 830.921 713.033 831.054 712.9C833.854 710.1 837.554 706.067 842.154 700.8C842.354 700.6 842.521 700.5 842.654 700.5C842.787 700.5 842.854 700.633 842.854 700.9C842.854 702.167 842.354 703.4 841.354 704.6C836.421 710.067 832.054 714.633 828.254 718.3ZM837.745 758.7C834.345 765.433 831.278 770.9 828.545 775.1C825.745 779.367 823.645 782.167 822.245 783.5C820.778 784.833 819.611 785.5 818.745 785.5C818.011 785.5 817.645 785.1 817.645 784.3C817.645 782.567 818.911 779.133 821.445 774C823.978 768.933 826.511 764.267 829.045 760L832.845 753.7L843.245 735.7C842.645 736.1 840.111 737.733 835.645 740.6C835.511 740.667 835.345 740.7 835.145 740.7C834.745 740.7 834.545 740.533 834.545 740.2C834.545 739.467 835.311 738.567 836.845 737.5C839.911 735.433 842.845 733.367 845.645 731.3L856.445 711.3L856.645 710.5C856.645 710.3 856.578 710.2 856.445 710.2L855.345 711C853.278 713.267 850.911 715.667 848.245 718.2C845.578 720.733 843.411 722.7 841.745 724.1L839.245 726.2C837.045 727.933 835.278 728.8 833.945 728.8C832.278 728.8 831.445 727.467 831.445 724.8C831.445 720.6 833.111 715.4 836.445 709.2C839.778 702.933 844.245 697.267 849.845 692.2C855.511 687.133 861.045 684.6 866.445 684.6C867.445 684.6 868.245 684.7 868.845 684.9C869.511 685.1 869.978 685.333 870.245 685.6C870.511 685.8 870.678 685.9 870.745 685.9C870.878 685.9 871.045 685.8 871.245 685.6C874.845 680.733 877.611 678.3 879.545 678.3C880.145 678.3 880.445 678.667 880.445 679.4C880.445 680.333 879.978 681.733 879.045 683.6C871.645 696.8 867.145 704.733 865.545 707.4C864.278 709.467 861.311 714.633 856.645 722.9C865.911 715.367 873.645 708 879.845 700.8C880.045 700.6 880.211 700.5 880.345 700.5C880.478 700.5 880.545 700.633 880.545 700.9C880.545 702.167 880.045 703.4 879.045 704.6C872.245 712.133 863.878 719.867 853.945 727.8C849.211 736.267 843.811 746.567 837.745 758.7ZM869.445 688.1C869.511 687.967 869.545 687.833 869.545 687.7C869.545 687.233 868.978 687 867.845 687C864.711 687 861.011 689.233 856.745 693.7C852.545 698.167 849.011 702.867 846.145 707.8C843.345 712.667 841.945 716 841.945 717.8C841.945 718.6 842.245 719 842.845 719C843.711 719 844.811 718.467 846.145 717.4C847.211 716.533 848.611 715.267 850.345 713.6C852.078 711.933 855.011 708.567 859.145 703.5C863.345 698.367 866.778 693.233 869.445 688.1ZM892.94 711.3L896.04 706C896.04 705.8 895.973 705.7 895.84 705.7C895.707 705.7 895.54 705.8 895.34 706C892.873 708.867 890.307 711.667 887.64 714.4C884.973 717.067 882.94 719.033 881.54 720.3L879.34 722.2C874.14 727.133 870.54 729.6 868.54 729.6C867.607 729.6 867.14 729 867.14 727.8C867.14 726.467 867.707 724.433 868.84 721.7C869.907 718.967 871.007 716.533 872.14 714.4L873.74 711.3C879.34 700.833 883.473 693.833 886.14 690.3C887.473 688.567 889.107 687.133 891.04 686C892.973 684.8 894.473 684.2 895.54 684.2C896.207 684.2 896.54 684.433 896.54 684.9C896.54 685.167 896.407 685.533 896.14 686C896.007 686.267 894.64 688.5 892.04 692.7C889.44 696.833 887.34 700.4 885.74 703.4C881.34 711.467 879.14 716.1 879.14 717.3C879.14 717.767 879.34 718 879.74 718C880.34 718 881.373 717.4 882.84 716.2C887.173 712.467 891.94 707.433 897.14 701.1C900.007 698.033 903.007 694.033 906.14 689.1C908.273 685.833 911.107 684.2 914.64 684.2C915.24 684.2 915.54 684.467 915.54 685L914.74 686.9C913.807 688.567 911.707 692.233 908.44 697.9C905.24 703.5 903.407 706.7 902.94 707.5C900.207 712.3 898.84 715.467 898.84 717C898.84 717.6 899.04 717.9 899.44 717.9C900.107 717.9 902.24 716.233 905.84 712.9C908.64 710.1 912.34 706.067 916.94 700.8C917.14 700.6 917.307 700.5 917.44 700.5C917.573 700.5 917.64 700.633 917.64 700.9C917.64 702.167 917.14 703.4 916.14 704.6C911.207 710.067 906.84 714.633 903.04 718.3C900.44 720.767 897.507 723.233 894.24 725.7C891.04 728.167 888.707 729.4 887.24 729.4C886.24 729.4 885.74 728.7 885.74 727.3C885.74 726.5 886.34 724.767 887.54 722.1C888.74 719.433 889.94 716.967 891.14 714.7L892.94 711.3ZM921.249 718.3C913.449 725.633 908.449 729.3 906.249 729.3C905.116 729.3 904.549 728.533 904.549 727C904.549 725.467 905.149 723.233 906.349 720.3C907.549 717.367 908.749 714.8 909.949 712.6L911.749 709.4C916.816 700.533 920.649 694.167 923.249 690.3C924.383 688.633 925.816 687.233 927.549 686.1C929.349 684.9 931.016 684.3 932.549 684.3C933.083 684.3 933.349 684.533 933.349 685C933.349 685.333 933.116 685.967 932.649 686.9C931.849 688.367 929.883 691.867 926.749 697.4C923.616 702.933 921.749 706.267 921.149 707.4C918.416 712.2 917.049 715.4 917.049 717C917.049 717.6 917.249 717.9 917.649 717.9C918.316 717.9 920.449 716.233 924.049 712.9C926.849 710.1 930.549 706.067 935.149 700.8C935.349 700.6 935.516 700.5 935.649 700.5C935.783 700.5 935.849 700.633 935.849 700.9C935.849 702.167 935.349 703.4 934.349 704.6C929.416 710.067 925.049 714.633 921.249 718.3ZM934.549 678.6C932.883 678.6 932.049 677.6 932.049 675.6C932.049 673.733 932.749 671.867 934.149 670C935.549 668.067 937.083 667.1 938.749 667.1C940.749 667.1 941.749 668.233 941.749 670.5C941.749 672.367 940.983 674.2 939.449 676C937.916 677.733 936.283 678.6 934.549 678.6ZM953.113 694.1C953.913 692.433 954.313 690.967 954.313 689.7C954.313 688.633 953.98 688.1 953.313 688.1C952.913 688.1 952.447 688.233 951.913 688.5C951.447 688.7 951.08 688.933 950.813 689.2L950.313 689.6C948.247 691.4 945.647 694.7 942.513 699.5C939.447 704.233 937.913 707.267 937.913 708.6C937.913 708.867 937.98 709 938.113 709C938.513 709 939.38 708.667 940.713 708C942.113 707.333 944.08 705.767 946.613 703.3C949.213 700.833 951.38 697.767 953.113 694.1ZM948.613 717C952.147 713.733 957.213 708.333 963.813 700.8C964.013 700.6 964.18 700.5 964.313 700.5C964.447 700.5 964.513 700.633 964.513 700.9C964.513 702.167 964.013 703.4 963.013 704.6C958.08 710.067 953.713 714.633 949.913 718.3C947.113 721.1 943.78 723.8 939.913 726.4C936.047 728.933 932.847 730.2 930.313 730.2C927.247 730.2 925.713 728.067 925.713 723.8C925.713 716.733 928.313 709.333 933.513 701.6C938.78 693.867 944.847 688.633 951.713 685.9C954.58 684.7 957.18 684.1 959.513 684.1C962.113 684.1 963.413 685.133 963.413 687.2C963.413 691.067 960.68 695.5 955.213 700.5C949.747 705.5 943.613 709.3 936.813 711.9C936.547 711.967 936.313 712.2 936.113 712.6C935.113 715.333 934.613 717.767 934.613 719.9C934.613 722.3 935.513 723.5 937.313 723.5C940.18 723.5 943.947 721.333 948.613 717ZM999.024 686.2C997.958 687.4 995.858 689.467 992.724 692.4C989.591 695.333 986.724 697.967 984.124 700.3L980.224 703.8C976.424 707.133 972.924 710.5 969.724 713.9C966.524 717.3 964.258 719.867 962.924 721.6L961.024 724.2C960.758 724.667 960.624 725.067 960.624 725.4C960.624 726 961.691 726.3 963.824 726.3C967.624 726.3 971.591 724.3 975.724 720.3C980.724 715.3 983.791 712.8 984.924 712.8C985.258 712.8 985.424 713.1 985.424 713.7C982.558 719.967 980.358 724.033 978.824 725.9C977.691 727.367 976.291 728.2 974.624 728.4C973.358 728.6 971.024 728.7 967.624 728.7C966.291 728.7 964.891 728.667 963.424 728.6C961.958 728.6 960.691 728.567 959.624 728.5C958.624 728.5 958.024 728.5 957.824 728.5C956.958 728.5 956.158 728.567 955.424 728.7C954.758 728.833 954.291 728.967 954.024 729.1L953.624 729.3C951.224 730.767 949.558 731.5 948.624 731.5C948.091 731.5 947.824 731.233 947.824 730.7C947.824 729.033 948.991 726.667 951.324 723.6C953.591 720.467 956.324 717.333 959.524 714.2C962.724 711.067 965.358 708.533 967.424 706.6C969.558 704.6 971.024 703.3 971.824 702.7C975.424 699.7 979.224 696.433 983.224 692.9C987.291 689.3 989.324 687.367 989.324 687.1C989.324 686.7 988.758 686.5 987.624 686.5C981.024 686.567 974.791 689.767 968.924 696.1C968.858 696.167 968.658 696.2 968.324 696.2C967.458 696.2 967.024 696.033 967.024 695.7C967.024 695.567 967.458 694.867 968.324 693.6C969.258 692.333 970.258 690.933 971.324 689.4C972.391 687.8 973.058 686.7 973.324 686.1C973.858 685.367 974.558 684.967 975.424 684.9C981.024 684.567 986.324 684.4 991.324 684.4C994.724 684.4 997.091 684.467 998.424 684.6C999.158 684.667 999.524 684.9 999.524 685.3C999.524 685.433 999.358 685.733 999.024 686.2Z" fill="black"/>
<defs>
<filter id="filter0_d_0_1" x="782.504" y="426.688" width="79.3086" height="93.3125" filterUnits="userSpaceOnUse" color-interpolation-filters="sRGB">
<feFlood flood-opacity="0" result="BackgroundImageFix"/>
<feColorMatrix in="SourceAlpha" type="matrix" values="0 0 0 0 0 0 0 0 0 0 0 0 0 0 0 0 0 0 127 0" result="hardAlpha"/>
<feOffset dy="4"/>
<feGaussianBlur stdDeviation="2"/>
<feComposite in2="hardAlpha" operator="out"/>
<feColorMatrix type="matrix" values="0 0 0 0 0 0 0 0 0 0 0 0 0 0 0 0 0 0 0.25 0"/>
<feBlend mode="normal" in2="BackgroundImageFix" result="effect1_dropShadow_0_1"/>
<feBlend mode="normal" in="SourceGraphic" in2="effect1_dropShadow_0_1" result="shape"/>
</filter>
<filter id="filter1_d_0_1" x="705.504" y="359.688" width="64.3672" height="93.3125" filterUnits="userSpaceOnUse" color-interpolation-filters="sRGB">
<feFlood flood-opacity="0" result="BackgroundImageFix"/>
<feColorMatrix in="SourceAlpha" type="matrix" values="0 0 0 0 0 0 0 0 0 0 0 0 0 0 0 0 0 0 127 0" result="hardAlpha"/>
<feOffset dy="4"/>
<feGaussianBlur stdDeviation="2"/>
<feComposite in2="hardAlpha" operator="out"/>
<feColorMatrix type="matrix" values="0 0 0 0 0 0 0 0 0 0 0 0 0 0 0 0 0 0 0.25 0"/>
<feBlend mode="normal" in2="BackgroundImageFix" result="effect1_dropShadow_0_1"/>
<feBlend mode="normal" in="SourceGraphic" in2="effect1_dropShadow_0_1" result="shape"/>
</filter>
</defs>
</svg>
